<?xml version="1.0" encoding="iso-8859-1"?>
<!-- Generator: Adobe Illustrator 19.0.0, SVG Export Plug-In . SVG Version: 6.00 Build 0)  -->
<svg version="1.1" id="Layer_1" xmlns="http://www.w3.org/2000/svg" xmlns:xlink="http://www.w3.org/1999/xlink" x="0px" y="0px"
	 viewBox="0 0 512 512" style="enable-background:new 0 0 512 512;" xml:space="preserve">
<path style="fill:#D7EBFF;" d="M256,512C114.837,512,0,397.157,0,256S114.837,0,256,0s256,114.843,256,256S397.163,512,256,512z"/>
<path style="fill:#C4E2FF;" d="M512,256C512,114.843,397.163,0,256,0v512C397.163,512,512,397.157,512,256z"/>
<path style="fill:#E6563A;" d="M256,478.609c-122.75,0-222.609-99.864-222.609-222.609S133.25,33.391,256,33.391
	S478.609,133.256,478.609,256S378.75,478.609,256,478.609z"/>
<path style="fill:#D9472B;" d="M478.609,256c0-122.744-99.859-222.609-222.609-222.609v445.217
	C378.75,478.609,478.609,378.744,478.609,256z"/>
<path style="fill:#FFFFFF;" d="M256,400.538c-4.424,0-8.674-1.761-11.804-4.892l-114-114.016
	c-15.772-15.755-24.457-36.723-24.457-59.021s8.685-43.266,24.457-59.027c15.75-15.761,36.706-24.451,59.021-24.451
	s43.272,8.691,59.032,24.462l7.75,7.745l7.761-7.756c15.75-15.761,36.706-24.451,59.021-24.451s43.272,8.691,59.032,24.462
	c15.761,15.75,24.446,36.717,24.446,59.016s-8.685,43.266-24.457,59.027l-114,114.011C264.674,398.777,260.424,400.538,256,400.538z
	"/>
<path style="fill:#EDF0F2;" d="M267.804,395.647l114-114.011c15.772-15.761,24.457-36.728,24.457-59.027
	s-8.685-43.266-24.446-59.016c-15.761-15.772-36.717-24.462-59.032-24.462s-43.272,8.691-59.021,24.451L256,171.337v229.201
	C260.424,400.538,264.674,398.777,267.804,395.647z"/>
<g>
</g>
<g>
</g>
<g>
</g>
<g>
</g>
<g>
</g>
<g>
</g>
<g>
</g>
<g>
</g>
<g>
</g>
<g>
</g>
<g>
</g>
<g>
</g>
<g>
</g>
<g>
</g>
<g>
</g>
</svg>
